<svg xmlns="http://www.w3.org/2000/svg" viewBox="0 0 800 800"><defs><style>.cls-1{fill:#38a8f4;}.cls-2,.cls-3,.cls-4{fill:#f2a73b;}.cls-3{font-size:372px;font-family:Noteworthy-Bold, Noteworthy;font-weight:700;}.cls-3,.cls-4{stroke:#000;stroke-miterlimit:10;}</style></defs><title>Artboard 1</title><g id="Layer_1" data-name="Layer 1"><rect class="cls-1" x="97.5" y="112.5" width="641" height="641"/><path d="M738,113V753H98V113H738m1-1H97V754H739V112Z"/></g><g id="pencil"><path class="cls-2" d="M356.07,420.91c-35.68,0-124.16-61.18-210.39-145.47C102,232.71,62.8,188,35.39,149.42c-4.58-6.43-4-15.9,1.51-26.66A77.69,77.69,0,0,1,57.58,98.34c9.06-7.09,18.22-11,25.8-11a17.27,17.27,0,0,1,9.89,2.86c39.15,26.53,84.78,64.68,128.49,107.41C323.44,297,389.1,395.35,368.13,416.8,365.46,419.53,361.41,420.91,356.07,420.91Z"/><path d="M83.38,86.85v1A16.8,16.8,0,0,1,93,90.62c39.12,26.52,84.73,64.65,128.42,107.36,49.3,48.2,91.66,97.58,119.27,139.06,27,40.5,36.83,69.44,27.09,79.41-2.57,2.63-6.5,4-11.7,4-17,0-47.18-14.27-84.86-40.18C232.88,353.86,188.42,316.52,146,275.08,102.34,232.37,63.19,187.64,35.8,149.13c-4.47-6.27-3.92-15.56,1.54-26.14A77.18,77.18,0,0,1,57.89,98.73c9-7,18-10.88,25.49-10.88v-1m0,0C58,86.85,20.63,129.53,35,149.71,61.51,187,99.79,231.27,145.34,275.8c88.5,86.52,175.4,145.61,210.73,145.61,5.41,0,9.6-1.38,12.41-4.26,21.2-21.69-44.33-120.13-146.37-219.89C176.56,152.74,131.44,115.48,93.55,89.8a17.71,17.71,0,0,0-10.17-3Z"/><text class="cls-3" transform="translate(413.48 703.62)">B</text><rect class="cls-4" x="364.5" y="413.5" width="7" height="7"/></g></svg>